<svg version="1.1" id="Layer_1" xmlns="http://www.w3.org/2000/svg" xmlns:xlink="http://www.w3.org/1999/xlink" x="0px" y="0px" viewBox="141 340 361 401" style="enable-background:new 141 340 361 401;" xml:space="preserve">
 <style type="text/css">
  .st0{fill:#FA5A62;}
 </style>
 <title>
  samba_logo_heart_Wordmark_Red-2018
 </title>
 <path class="st0" d="M393.1,427.8c-17.3,0-33.9,6.8-46.1,19.1l-70.9,71.3c-13.9,13.1-35.8,12.5-48.9-1.4
	c-13.1-13.9-12.5-35.8,1.4-48.9c13.4-12.6,34.2-12.6,47.5,0.1c0.4,0.4,0.8,0.7,1.2,1.1c6.8,5,16.3,3.6,21.3-3.1c4-5.4,4-12.8,0-18.2
	c-0.2-0.2-1.2-1.3-1.2-1.3c-26-25.2-67.6-24.5-92.8,1.5c-25.2,26-24.5,67.6,1.5,92.8c24.9,24.1,64.4,24.7,90,1.2l1.2-1.2l73.8-74
	c14.8-11.6,36.1-9.1,47.7,5.7c10.1,12.8,9.7,31.1-1.1,43.4l-92.5,92.3c-1.9,1.9-4.9,1.9-6.8,0c0,0,0,0,0,0l-27-27l0.1,0.3
	c-6.4-6.1-16.4-5.8-22.5,0.5c-5.9,6.2-5.9,16,0.1,22.1l-0.3-0.4l46.8,46.8c3.5,3.6,9.3,3.6,12.9,0c0,0,0,0,0,0l112.8-113.8l0.4-0.4
	c23.9-26.9,21.6-68.1-5.3-92C424.5,433.7,409.1,427.8,393.1,427.8z">
 </path>
</svg>